<?xml version="1.0" encoding="UTF-8"?>
<svg id="Layer_2" data-name="Layer 2" xmlns="http://www.w3.org/2000/svg" viewBox="0 0 540 540">
  <defs>
    <style>
      .cls-1 {
        fill: #595959;
      }

      .cls-1, .cls-2, .cls-3 {
        stroke-width: 0px;
      }

      .cls-2 {
        fill: none;
      }

      .cls-3 {
        fill: #ff0031;
      }
    </style>
  </defs>
  <g id="Layer_1-2" data-name="Layer 1">
    <rect class="cls-2" width="540" height="540"/>
    <g>
      <path class="cls-1" d="M340.91,227.76l-.46-.16-.06.16h-10.52c1.21,1.01,2.95,2.75,4.19,5.37,1.5,3.17,1.64,6.27,1.4,8.61l-22.15,62.82c-2.55,7.23-12.78,7.23-15.33,0l-22.25-63.09c-.21-2.3-.02-5.28,1.43-8.33,1.24-2.63,2.98-4.36,4.19-5.37h-10.45l-22.03-62.47-16.48,46.75h0s-29.13,82.61-29.13,82.61c-1.44,2.36-3.59,5.13-6.77,7.62-6.18,4.84-12.61,5.78-15.23,6.01h17.73l.46.16.06-.16h10.62c-1.21-1.01-2.95-2.75-4.19-5.37-1.6-3.37-1.65-6.65-1.35-9.03l23.33-66.17c1.64-4.66,8.24-4.66,9.88,0h0v.55h.19l23.63,67.02c.11,2.19-.16,4.88-1.47,7.63-1.24,2.63-2.98,4.36-4.19,5.37h10.25l23.42,66.42,16.54-46.91h0s30.34-86.02,30.34-86.02c1.44-2.43,3.66-5.38,7-8.01,6.18-4.84,12.61-5.78,15.23-6.01h-17.83Z"/>
      <path class="cls-3" d="M314.41,245.33c0,3.85-3.12,6.97-6.96,6.97s-6.97-3.12-6.97-6.97,3.12-6.96,6.97-6.96,6.96,3.12,6.96,6.96Z"/>
    </g>
  </g>
</svg>